<svg width="20" height="21" viewBox="0 0 20 21" fill="none" xmlns="http://www.w3.org/2000/svg">
<path d="M4.54545 0H15.4545C17.9609 0 20 2.14105 20 4.77273V12.4091C20 15.0408 17.9609 17.1818 15.4545 17.1818H10.2755L5.05 20.8396C4.89727 20.9456 4.72182 21 4.54545 21C4.39818 21 4.25091 20.9628 4.11636 20.8874C3.82091 20.7213 3.63636 20.3977 3.63636 20.0455V17.0854C1.56455 16.6415 0 14.7134 0 12.4091V4.77273C0 2.14105 2.03909 0 4.54545 0Z" fill="#BDBDBD"/>
<ellipse cx="5" cy="8.70393" rx="1.25" ry="1.24342" fill="white"/>
<ellipse cx="10" cy="8.70393" rx="1.25" ry="1.24342" fill="white"/>
<ellipse cx="15" cy="8.70393" rx="1.25" ry="1.24342" fill="white"/>
</svg>
