<svg width="20" height="22" viewBox="0 0 20 22" fill="none" xmlns="http://www.w3.org/2000/svg">
<path d="M14.2204 0.998535H5.77704C5.28176 0.998535 4.8761 1.41087 4.8761 1.91429V4.20608C4.8761 4.70951 5.28176 5.12184 5.77704 5.12184H14.2204C14.7157 5.12184 15.1214 4.70951 15.1214 4.20608V1.91909C15.1214 1.41087 14.7157 0.998535 14.2204 0.998535Z" fill="white"/>
<path d="M18.1981 2.83476H16.4764V4.66628C16.4764 5.67313 15.6651 6.49779 14.6745 6.49779H5.32547C4.33491 6.49779 3.52358 5.67313 3.52358 4.66628V2.83476H1.80189C0.811321 2.83476 0 3.65942 0 4.66628V20.167C0 21.1739 0.811321 21.9985 1.80189 21.9985H18.1981C19.1887 21.9985 20 21.1739 20 20.167V4.66628C20 3.65942 19.1887 2.83476 18.1981 2.83476ZM6.93396 13.0232L4.83962 15.8903C4.69811 16.0821 4.48585 16.1876 4.26887 16.1971C4.25943 16.1971 4.24528 16.1971 4.23585 16.1971C4.22642 16.1971 4.21226 16.1971 4.20283 16.1971C3.98585 16.1876 3.77358 16.0821 3.63208 15.8903L2.31604 14.0875C2.07075 13.7471 2.13679 13.2725 2.4717 13.0232C2.8066 12.7738 3.27359 12.841 3.51887 13.1814L4.23585 14.1643L5.73113 12.1218C5.97642 11.7814 6.44811 11.7142 6.7783 11.9636C7.11321 12.2081 7.18396 12.6827 6.93396 13.0232ZM16.5142 19.2656H8.96226V17.204H16.5142V19.2656ZM16.5142 15.4012H8.96226V13.3396H16.5142V15.4012ZM16.5142 11.5321H8.96226V9.4704H16.5142V11.5321Z" fill="white"/>
</svg>
