<svg width="24" height="24" viewBox="0 0 24 24" fill="none" xmlns="http://www.w3.org/2000/svg">
<path d="M11.56 18.3904C10.9496 18.3904 10.3576 18.3088 9.7936 18.1576C9.2208 18.004 8.6776 17.7768 8.1736 17.488C7.136 16.8928 6.2688 16.0336 5.664 15.0024C5.3592 14.4832 5.1216 13.9208 4.9624 13.3256C4.8112 12.7616 4.7296 12.1704 4.7296 11.5592C4.7296 10.948 4.8112 10.3568 4.9624 9.7928C5.1216 9.1984 5.36 8.6352 5.664 8.116C6.2688 7.0848 7.136 6.2256 8.1736 5.6304C8.6768 5.3416 9.22 5.1144 9.7936 4.9608C10.3576 4.8096 10.9488 4.728 11.56 4.728C12.1704 4.728 12.7624 4.8096 13.3264 4.9608C13.9208 5.12 14.484 5.3584 15.0032 5.6624C16.0344 6.2672 16.8936 7.1344 17.4888 8.172C17.7776 8.6752 18.004 9.2184 18.1576 9.792C18.3088 10.356 18.3904 10.9472 18.3904 11.5584C18.3904 12.0392 18.3392 12.508 18.244 12.9608L19.9328 14.6496C20.0912 14.2224 20.2192 13.78 20.3112 13.3248H22.504C22.8448 13.3248 23.1208 13.0488 23.1208 12.708V10.2344C23.1208 9.9904 22.9232 9.792 22.6784 9.792H20.3112C20.0816 8.6512 19.632 7.5888 19.0112 6.6496L20.592 5.0688C20.8328 4.828 20.8328 4.4376 20.592 4.1968L18.8432 2.448C18.6704 2.2752 18.3904 2.2752 18.2184 2.448L16.5232 4.144C15.5704 3.5048 14.4888 3.0432 13.3256 2.8088V0.6168C13.3256 0.276 13.0496 0 12.7088 0H10.2352C9.9912 0 9.7928 0.1976 9.7928 0.4424V2.8096C8.652 3.0392 7.5896 3.4888 6.6504 4.1096L5.1144 2.5736C4.8736 2.3328 4.4832 2.3328 4.2424 2.5736L2.4944 4.3224C2.3216 4.4952 2.3216 4.7752 2.4944 4.948L4.144 6.5968C3.5048 7.5496 3.0432 8.6312 2.8088 9.7944H0.6168C0.276 9.7944 0 10.0704 0 10.4112V12.7104C0 13.0512 0.276 13.3272 0.6168 13.3272H2.8096C3.044 14.4904 3.5048 15.572 4.1448 16.5248L2.6184 18.0512C2.3776 18.292 2.3776 18.6824 2.6184 18.9232L4.244 20.5488C4.4848 20.7896 4.8752 20.7896 5.116 20.5488L6.652 19.0128C7.5912 19.6336 8.6536 20.0824 9.7944 20.3128V22.5056C9.7944 22.8464 10.0704 23.1224 10.4112 23.1224H12.7104C13.0512 23.1224 13.3272 22.8464 13.3272 22.5056V20.3128C13.7824 20.2208 14.2248 20.0936 14.6528 19.9352L12.9632 18.2456C12.5096 18.3392 12.0408 18.3904 11.56 18.3904Z" fill="#369685"/>
<path d="M14.5758 8.86498C13.3246 7.61378 11.4734 7.32978 9.94863 8.01138L12.9638 11.0266C13.2174 11.2802 13.2174 11.6906 12.9638 11.9442L11.7894 13.1186C11.5358 13.3722 11.1254 13.3722 10.8718 13.1186L7.85663 10.1034C7.17503 11.6282 7.45903 13.4794 8.71023 14.7306C9.89663 15.917 11.623 16.2338 13.0982 15.6818L16.5334 19.117C17.2038 19.7874 18.2918 19.7874 18.9622 19.117C19.6326 18.4466 19.6326 17.3586 18.9622 16.6882L15.527 13.253C16.0782 11.7778 15.7622 10.0514 14.5758 8.86498Z" fill="#369685"/>
</svg>
