<?xml version="1.0" encoding="utf-8"?>
<!-- Generator: Adobe Illustrator 26.4.1, SVG Export Plug-In . SVG Version: 6.00 Build 0)  -->
<svg version="1.1" id="Слой_1" xmlns="http://www.w3.org/2000/svg" xmlns:xlink="http://www.w3.org/1999/xlink" x="0px" y="0px"
	 viewBox="0 0 500 500" style="enable-background:new 0 0 500 500;" xml:space="preserve">
<path d="M250,18C122.1,18,18,122.1,18,250c0,127.9,104.1,232,232,232c127.9,0,232-104.1,232-232C482,122.1,377.9,18,250,18z
	 M250,353.4c-108.4,0-166.9-101.2-166.9-101.2S141.6,151,250,151c108.4,0,166.8,101.2,166.8,101.2S358.4,353.4,250,353.4z"/>
<path d="M285.5,255.8c-19,0-34.5-15.4-34.5-34.5c0-17.1,12.5-31.2,28.9-33.9c-9.1-4.4-19.2-7.1-30-7.1c-38.4,0-69.6,31.2-69.6,69.6
	c0,38.4,31.2,69.6,69.6,69.6c38.4,0,69.6-31.2,69.6-69.6c0-5.5-0.8-10.9-2.1-16.1C312.5,246.8,300.1,255.8,285.5,255.8z"/>
</svg>
