<?xml version="1.0" encoding="utf-8"?>
<!-- Generator: Adobe Illustrator 26.4.1, SVG Export Plug-In . SVG Version: 6.00 Build 0)  -->
<svg version="1.1" id="Слой_1" xmlns="http://www.w3.org/2000/svg" xmlns:xlink="http://www.w3.org/1999/xlink" x="0px" y="0px"
	 viewBox="0 0 500 500" style="enable-background:new 0 0 500 500;" xml:space="preserve">
<path d="M339.7,28.8h-179c-10.5,0-19.1,8.6-19.1,19.1v47.8c0,10.5,8.6,19.1,19.1,19.1h179c10.5,0,19.1-8.6,19.1-19.1V48
	C358.8,37.4,350.2,28.8,339.7,28.8z"/>
<path d="M424,67.1h-36.5v38.2c0,21-17.2,38.2-38.2,38.2H151.1c-21,0-38.2-17.2-38.2-38.2V67.1H76.4c-21,0-38.2,17.2-38.2,38.2v323.3
	c0,21,17.2,38.2,38.2,38.2H424c21,0,38.2-17.2,38.2-38.2V105.3C462.2,84.3,445,67.1,424,67.1z M185.2,279.6l-44.4,59.8
	c-3,4-7.5,6.2-12.1,6.4c-0.2,0-0.5,0-0.7,0c-0.2,0-0.5,0-0.7,0c-4.6-0.2-9.1-2.4-12.1-6.4l-27.9-37.6c-5.2-7.1-3.8-17,3.3-22.2
	c7.1-5.2,17-3.8,22.2,3.3l15.2,20.5l31.7-42.6c5.2-7.1,15.2-8.5,22.2-3.3C189,262.6,190.5,272.5,185.2,279.6z M388.3,409.8H228.2
	v-43h160.1V409.8z M388.3,329.2H228.2v-43h160.1V329.2z M388.3,248.5H228.2v-43h160.1V248.5z"/>
</svg>
